<mxfile host="app.diagrams.net">
  <diagram name="Page-1">
    <mxGraphModel dx="1200" dy="800" grid="1" gridSize="10" guides="1" tooltips="1" connect="1" arrows="1" fold="1" page="1" pageScale="1" pageWidth="850" pageHeight="1100" math="0" shadow="0">
      <root>
        <mxCell id="0"/>
        <mxCell id="1" parent="0"/>
        
        <!-- Animal Class -->
        <mxCell id="2" value="&lt;b&gt;Animal&lt;/b&gt;&lt;hr&gt;-name: String&lt;hr&gt;+say()" style="verticalAlign=top;align=left;overflow=fill;fontSize=12;fontFamily=Helvetica;html=1;whiteSpace=wrap;" vertex="1" parent="1">
          <mxGeometry x="300" y="60" width="160" height="80" as="geometry"/>
        </mxCell>
        
        <!-- Sayable Interface -->
        <mxCell id="3" value="&lt;i&gt;&amp;lt;&amp;lt;interface&amp;gt;&amp;gt;&lt;/i&gt;&lt;br&gt;&lt;b&gt;Sayable&lt;/b&gt;&lt;hr&gt;+say()" style="verticalAlign=top;align=left;overflow=fill;fontSize=12;fontFamily=Helvetica;html=1;whiteSpace=wrap;dashed=1;" vertex="1" parent="1">
          <mxGeometry x="540" y="60" width="140" height="70" as="geometry"/>
        </mxCell>
        
        <!-- Cat Class -->
        <mxCell id="4" value="&lt;b&gt;Cat&lt;/b&gt;&lt;hr&gt;+say()&lt;br&gt;-meow()" style="verticalAlign=top;align=left;overflow=fill;fontSize=12;fontFamily=Helvetica;html=1;whiteSpace=wrap;" vertex="1" parent="1">
          <mxGeometry x="80" y="220" width="120" height="70" as="geometry"/>
        </mxCell>
        
        <!-- Canine Class -->
        <mxCell id="5" value="&lt;i&gt;&lt;b&gt;Canine&lt;/b&gt;&lt;/i&gt;&lt;hr&gt;#likeBones: bool" style="verticalAlign=top;align=left;overflow=fill;fontSize=12;fontFamily=Helvetica;html=1;whiteSpace=wrap;" vertex="1" parent="1">
          <mxGeometry x="400" y="220" width="140" height="70" as="geometry"/>
        </mxCell>
        
        <!-- Dog Class -->
        <mxCell id="6" value="&lt;b&gt;Dog&lt;/b&gt;&lt;hr&gt;+say()&lt;br&gt;-bark()" style="verticalAlign=top;align=left;overflow=fill;fontSize=12;fontFamily=Helvetica;html=1;whiteSpace=wrap;" vertex="1" parent="1">
          <mxGeometry x="440" y="370" width="120" height="70" as="geometry"/>
        </mxCell>
        
        <!-- Robot Class -->
        <mxCell id="7" value="&lt;b&gt;Robot&lt;/b&gt;&lt;hr&gt;-printOut()&lt;br&gt;+say()" style="verticalAlign=top;align=left;overflow=fill;fontSize=12;fontFamily=Helvetica;html=1;whiteSpace=wrap;" vertex="1" parent="1">
          <mxGeometry x="650" y="220" width="120" height="70" as="geometry"/>
        </mxCell>
        
        <!-- Inheritance: Animal -> Cat -->
        <mxCell id="8" style="endArrow=block;endFill=0;html=1;edgeStyle=orthogonalEdgeStyle;align=left;verticalAlign=top;" edge="1" parent="1" source="4" target="2">
          <mxGeometry x="-1" relative="1" as="geometry"/>
        </mxCell>
        
        <!-- Inheritance: Animal -> Canine -->
        <mxCell id="9" style="endArrow=block;endFill=0;html=1;edgeStyle=orthogonalEdgeStyle;align=left;verticalAlign=top;" edge="1" parent="1" source="5" target="2">
          <mxGeometry x="-1" relative="1" as="geometry"/>
        </mxCell>
        
        <!-- Inheritance: Canine -> Dog -->
        <mxCell id="10" style="endArrow=block;endFill=0;html=1;edgeStyle=orthogonalEdgeStyle;align=left;verticalAlign=top;" edge="1" parent="1" source="6" target="5">
          <mxGeometry x="-1" relative="1" as="geometry"/>
        </mxCell>
        
        <!-- Interface Implementation: Sayable -> Animal -->
        <mxCell id="11" style="endArrow=block;endFill=0;dashed=1;html=1;edgeStyle=orthogonalEdgeStyle;align=left;verticalAlign=top;" edge="1" parent="1" source="2" target="3">
          <mxGeometry x="-1" relative="1" as="geometry"/>
        </mxCell>
        
        <!-- Interface Implementation: Sayable -> Robot -->
        <mxCell id="12" style="endArrow=block;endFill=0;dashed=1;html=1;edgeStyle=orthogonalEdgeStyle;align=left;verticalAlign=top;" edge="1" parent="1" source="7" target="3">
          <mxGeometry x="-1" relative="1" as="geometry"/>
        </mxCell>
        
      </root>
    </mxGraphModel>
  </diagram>
</mxfile>
